<svg width="126" height="48" viewBox="0 0 126 48" xmlns="http://www.w3.org/2000/svg">
  <title>Plaid logo</title>
  <defs>
    <path id="a" d="M0 47.473h126V0H0z"/>
  </defs>
  <style>
    .st0{fill-rule:evenodd;clip-rule:evenodd;fill:none;}
    .st1{fill:#737373;}
    .st2{fill:#F25022;}
    .st3{fill:#7FBA00;}
    .st4{fill:#00A4EF;}
    .st5{fill:#FFB900;}
  </style>
  <g fill="none" fill-rule="evenodd">
    <path d="M66.248 16.268c-1.057-.889-2.861-1.333-5.413-1.333h-5.756v17.788h4.304v-5.575h1.928c2.34 0 4.056-.515 5.148-1.546 1.23-1.155 1.849-2.693 1.849-4.613 0-1.991-.687-3.565-2.06-4.721m-5.044 6.855h-1.821V18.96h1.636c1.99 0 2.985.698 2.985 2.094 0 1.378-.934 2.068-2.8 2.068M75.673 14.934h-4.488v17.788h9.69v-4.026h-5.202zM89.668 14.934l-7.05 17.788h4.832l.924-2.586H94.5l.845 2.586h4.886l-7-17.788h-3.563zm-.053 11.601l1.849-6.08 1.82 6.08h-3.67z" class="st1"/>
    <mask id="b" fill="#fff">
      <use xlink:href="#a"/>
    </mask>
    <path fill="#888" mask="url(#b)" d="M102.473 32.722h4.489V14.934h-4.489zM124.39 18.268a7.376 7.376 0 0 0-2.14-2.053c-1.355-.854-3.204-1.28-5.545-1.28h-5.914v17.787h6.918c2.5 0 4.506-.817 6.02-2.453 1.514-1.635 2.27-3.805 2.27-6.508 0-2.15-.537-3.981-1.61-5.493m-7.182 10.427h-1.927v-9.734h1.954c1.373 0 2.428.43 3.168 1.287.74.857 1.11 2.073 1.11 3.647 0 3.2-1.435 4.8-4.305 4.8"/>
  </g>
</svg>
